<mxfile host="app.diagrams.net" modified="2022-01-21T10:24:05.780Z" agent="5.0 (X11; Linux x86_64) AppleWebKit/537.36 (KHTML, like Gecko) Chrome/96.0.4664.137 Safari/537.36" etag="74dg4131bPa8g6KFxiMP" version="16.4.3" type="github">
  <diagram id="fIKkRCixxkwFUs0x7kcC" name="Page-1">
    <mxGraphModel dx="1422" dy="787" grid="1" gridSize="10" guides="1" tooltips="1" connect="1" arrows="1" fold="1" page="1" pageScale="1" pageWidth="827" pageHeight="1169" math="0" shadow="0">
      <root>
        <mxCell id="0" />
        <mxCell id="1" parent="0" />
        <mxCell id="swwnsGvYC6vCfxG6fQMU-13" style="edgeStyle=orthogonalEdgeStyle;rounded=1;orthogonalLoop=1;jettySize=auto;html=1;entryX=0;entryY=0.5;entryDx=0;entryDy=0;shadow=1;" parent="1" source="swwnsGvYC6vCfxG6fQMU-1" target="swwnsGvYC6vCfxG6fQMU-8" edge="1">
          <mxGeometry relative="1" as="geometry" />
        </mxCell>
        <mxCell id="swwnsGvYC6vCfxG6fQMU-1" value="Hours" style="rounded=1;whiteSpace=wrap;html=1;shadow=1;" parent="1" vertex="1">
          <mxGeometry x="40" y="40" width="120" height="40" as="geometry" />
        </mxCell>
        <mxCell id="swwnsGvYC6vCfxG6fQMU-14" style="edgeStyle=orthogonalEdgeStyle;rounded=1;orthogonalLoop=1;jettySize=auto;html=1;entryX=0;entryY=0.5;entryDx=0;entryDy=0;shadow=1;" parent="1" source="swwnsGvYC6vCfxG6fQMU-3" target="swwnsGvYC6vCfxG6fQMU-8" edge="1">
          <mxGeometry relative="1" as="geometry" />
        </mxCell>
        <mxCell id="swwnsGvYC6vCfxG6fQMU-3" value="Minutes" style="rounded=1;whiteSpace=wrap;html=1;shadow=1;" parent="1" vertex="1">
          <mxGeometry x="40" y="90" width="120" height="40" as="geometry" />
        </mxCell>
        <mxCell id="swwnsGvYC6vCfxG6fQMU-15" style="edgeStyle=orthogonalEdgeStyle;rounded=1;orthogonalLoop=1;jettySize=auto;html=1;entryX=0;entryY=0.5;entryDx=0;entryDy=0;shadow=1;" parent="1" source="swwnsGvYC6vCfxG6fQMU-4" target="swwnsGvYC6vCfxG6fQMU-8" edge="1">
          <mxGeometry relative="1" as="geometry" />
        </mxCell>
        <mxCell id="swwnsGvYC6vCfxG6fQMU-4" value="Seconds" style="rounded=1;whiteSpace=wrap;html=1;shadow=1;" parent="1" vertex="1">
          <mxGeometry x="40" y="140" width="120" height="40" as="geometry" />
        </mxCell>
        <mxCell id="swwnsGvYC6vCfxG6fQMU-16" style="edgeStyle=orthogonalEdgeStyle;rounded=1;orthogonalLoop=1;jettySize=auto;html=1;shadow=1;" parent="1" source="swwnsGvYC6vCfxG6fQMU-5" target="swwnsGvYC6vCfxG6fQMU-9" edge="1">
          <mxGeometry relative="1" as="geometry" />
        </mxCell>
        <mxCell id="swwnsGvYC6vCfxG6fQMU-5" value="Degrees" style="rounded=1;whiteSpace=wrap;html=1;shadow=1;" parent="1" vertex="1">
          <mxGeometry x="320" y="40" width="120" height="40" as="geometry" />
        </mxCell>
        <mxCell id="swwnsGvYC6vCfxG6fQMU-17" style="edgeStyle=orthogonalEdgeStyle;rounded=1;orthogonalLoop=1;jettySize=auto;html=1;shadow=1;" parent="1" source="swwnsGvYC6vCfxG6fQMU-6" target="swwnsGvYC6vCfxG6fQMU-9" edge="1">
          <mxGeometry relative="1" as="geometry" />
        </mxCell>
        <mxCell id="swwnsGvYC6vCfxG6fQMU-6" value="Minutes" style="rounded=1;whiteSpace=wrap;html=1;shadow=1;" parent="1" vertex="1">
          <mxGeometry x="320" y="90" width="120" height="40" as="geometry" />
        </mxCell>
        <mxCell id="swwnsGvYC6vCfxG6fQMU-18" style="edgeStyle=orthogonalEdgeStyle;rounded=1;orthogonalLoop=1;jettySize=auto;html=1;shadow=1;" parent="1" source="swwnsGvYC6vCfxG6fQMU-7" target="swwnsGvYC6vCfxG6fQMU-9" edge="1">
          <mxGeometry relative="1" as="geometry" />
        </mxCell>
        <mxCell id="swwnsGvYC6vCfxG6fQMU-7" value="Seconds" style="rounded=1;whiteSpace=wrap;html=1;shadow=1;" parent="1" vertex="1">
          <mxGeometry x="320" y="140" width="120" height="40" as="geometry" />
        </mxCell>
        <mxCell id="swwnsGvYC6vCfxG6fQMU-21" style="edgeStyle=orthogonalEdgeStyle;rounded=1;orthogonalLoop=1;jettySize=auto;html=1;entryX=0.5;entryY=0;entryDx=0;entryDy=0;shadow=1;" parent="1" source="swwnsGvYC6vCfxG6fQMU-8" target="swwnsGvYC6vCfxG6fQMU-19" edge="1">
          <mxGeometry relative="1" as="geometry" />
        </mxCell>
        <mxCell id="swwnsGvYC6vCfxG6fQMU-8" value="&lt;div&gt;Right&lt;/div&gt;&lt;div&gt;ascension&lt;/div&gt;" style="ellipse;whiteSpace=wrap;html=1;aspect=fixed;rounded=1;shadow=1;" parent="1" vertex="1">
          <mxGeometry x="220" y="70" width="80" height="80" as="geometry" />
        </mxCell>
        <mxCell id="swwnsGvYC6vCfxG6fQMU-20" style="edgeStyle=orthogonalEdgeStyle;rounded=1;orthogonalLoop=1;jettySize=auto;html=1;entryX=1;entryY=0.5;entryDx=0;entryDy=0;shadow=1;" parent="1" source="swwnsGvYC6vCfxG6fQMU-9" target="swwnsGvYC6vCfxG6fQMU-19" edge="1">
          <mxGeometry relative="1" as="geometry">
            <Array as="points">
              <mxPoint x="540" y="240" />
            </Array>
          </mxGeometry>
        </mxCell>
        <mxCell id="swwnsGvYC6vCfxG6fQMU-9" value="Declination" style="ellipse;whiteSpace=wrap;html=1;aspect=fixed;rounded=1;shadow=1;" parent="1" vertex="1">
          <mxGeometry x="500" y="70" width="80" height="80" as="geometry" />
        </mxCell>
        <mxCell id="swwnsGvYC6vCfxG6fQMU-45" style="edgeStyle=orthogonalEdgeStyle;rounded=1;orthogonalLoop=1;jettySize=auto;html=1;entryX=0;entryY=0.5;entryDx=0;entryDy=0;shadow=1;" parent="1" source="swwnsGvYC6vCfxG6fQMU-19" target="swwnsGvYC6vCfxG6fQMU-43" edge="1">
          <mxGeometry relative="1" as="geometry" />
        </mxCell>
        <mxCell id="swwnsGvYC6vCfxG6fQMU-19" value="Position" style="ellipse;whiteSpace=wrap;html=1;aspect=fixed;rounded=1;shadow=1;" parent="1" vertex="1">
          <mxGeometry x="220" y="200" width="80" height="80" as="geometry" />
        </mxCell>
        <mxCell id="swwnsGvYC6vCfxG6fQMU-23" style="edgeStyle=orthogonalEdgeStyle;rounded=1;orthogonalLoop=1;jettySize=auto;html=1;shadow=1;" parent="1" source="swwnsGvYC6vCfxG6fQMU-22" target="swwnsGvYC6vCfxG6fQMU-19" edge="1">
          <mxGeometry relative="1" as="geometry" />
        </mxCell>
        <mxCell id="swwnsGvYC6vCfxG6fQMU-22" value="Distance" style="rounded=1;whiteSpace=wrap;html=1;shadow=1;" parent="1" vertex="1">
          <mxGeometry x="40" y="220" width="120" height="40" as="geometry" />
        </mxCell>
        <mxCell id="swwnsGvYC6vCfxG6fQMU-30" style="edgeStyle=orthogonalEdgeStyle;rounded=1;orthogonalLoop=1;jettySize=auto;html=1;entryX=0;entryY=0.5;entryDx=0;entryDy=0;shadow=1;" parent="1" source="swwnsGvYC6vCfxG6fQMU-24" target="swwnsGvYC6vCfxG6fQMU-27" edge="1">
          <mxGeometry relative="1" as="geometry">
            <Array as="points">
              <mxPoint x="20" y="290" />
              <mxPoint x="20" y="410" />
            </Array>
          </mxGeometry>
        </mxCell>
        <mxCell id="swwnsGvYC6vCfxG6fQMU-24" value="Right ascension" style="rounded=1;whiteSpace=wrap;html=1;shadow=1;" parent="1" vertex="1">
          <mxGeometry x="40" y="270" width="120" height="40" as="geometry" />
        </mxCell>
        <mxCell id="swwnsGvYC6vCfxG6fQMU-41" style="edgeStyle=orthogonalEdgeStyle;rounded=1;orthogonalLoop=1;jettySize=auto;html=1;entryX=1;entryY=0.5;entryDx=0;entryDy=0;shadow=1;" parent="1" source="swwnsGvYC6vCfxG6fQMU-27" target="swwnsGvYC6vCfxG6fQMU-37" edge="1">
          <mxGeometry relative="1" as="geometry">
            <Array as="points">
              <mxPoint x="180" y="410" />
              <mxPoint x="180" y="660" />
            </Array>
          </mxGeometry>
        </mxCell>
        <mxCell id="swwnsGvYC6vCfxG6fQMU-27" value="&lt;div&gt;Proper&lt;/div&gt;&lt;div&gt;motion&lt;/div&gt;" style="ellipse;whiteSpace=wrap;html=1;aspect=fixed;rounded=1;shadow=1;" parent="1" vertex="1">
          <mxGeometry x="60" y="370" width="80" height="80" as="geometry" />
        </mxCell>
        <mxCell id="swwnsGvYC6vCfxG6fQMU-31" style="edgeStyle=orthogonalEdgeStyle;rounded=1;orthogonalLoop=1;jettySize=auto;html=1;entryX=0;entryY=0.5;entryDx=0;entryDy=0;shadow=1;" parent="1" source="swwnsGvYC6vCfxG6fQMU-28" target="swwnsGvYC6vCfxG6fQMU-27" edge="1">
          <mxGeometry relative="1" as="geometry">
            <Array as="points">
              <mxPoint x="20" y="340" />
              <mxPoint x="20" y="410" />
            </Array>
          </mxGeometry>
        </mxCell>
        <mxCell id="swwnsGvYC6vCfxG6fQMU-28" value="Declination" style="rounded=1;whiteSpace=wrap;html=1;shadow=1;" parent="1" vertex="1">
          <mxGeometry x="40" y="320" width="120" height="40" as="geometry" />
        </mxCell>
        <mxCell id="swwnsGvYC6vCfxG6fQMU-42" style="edgeStyle=orthogonalEdgeStyle;rounded=1;orthogonalLoop=1;jettySize=auto;html=1;entryX=1;entryY=0.5;entryDx=0;entryDy=0;shadow=1;" parent="1" source="swwnsGvYC6vCfxG6fQMU-34" target="swwnsGvYC6vCfxG6fQMU-37" edge="1">
          <mxGeometry relative="1" as="geometry">
            <Array as="points">
              <mxPoint x="180" y="560" />
              <mxPoint x="180" y="660" />
            </Array>
          </mxGeometry>
        </mxCell>
        <mxCell id="swwnsGvYC6vCfxG6fQMU-34" value="Radial&lt;br&gt;velocity" style="ellipse;whiteSpace=wrap;html=1;aspect=fixed;rounded=1;shadow=1;" parent="1" vertex="1">
          <mxGeometry x="60" y="520" width="80" height="80" as="geometry" />
        </mxCell>
        <mxCell id="swwnsGvYC6vCfxG6fQMU-35" style="edgeStyle=orthogonalEdgeStyle;rounded=1;orthogonalLoop=1;jettySize=auto;html=1;entryX=0;entryY=0.5;entryDx=0;entryDy=0;shadow=1;" parent="1" source="swwnsGvYC6vCfxG6fQMU-36" target="swwnsGvYC6vCfxG6fQMU-34" edge="1">
          <mxGeometry relative="1" as="geometry">
            <Array as="points">
              <mxPoint x="20" y="490" />
              <mxPoint x="20" y="560" />
            </Array>
          </mxGeometry>
        </mxCell>
        <mxCell id="swwnsGvYC6vCfxG6fQMU-36" value="Radial velocity" style="rounded=1;whiteSpace=wrap;html=1;shadow=1;" parent="1" vertex="1">
          <mxGeometry x="40" y="470" width="120" height="40" as="geometry" />
        </mxCell>
        <mxCell id="RuhA-SgEfiPzmEvg2mQS-1" style="edgeStyle=orthogonalEdgeStyle;rounded=1;orthogonalLoop=1;jettySize=auto;html=1;entryX=0;entryY=0.5;entryDx=0;entryDy=0;shadow=1;" parent="1" source="swwnsGvYC6vCfxG6fQMU-37" target="swwnsGvYC6vCfxG6fQMU-43" edge="1">
          <mxGeometry relative="1" as="geometry">
            <Array as="points">
              <mxPoint x="100" y="760" />
            </Array>
          </mxGeometry>
        </mxCell>
        <mxCell id="swwnsGvYC6vCfxG6fQMU-37" value="Velocity" style="ellipse;whiteSpace=wrap;html=1;aspect=fixed;rounded=1;shadow=1;" parent="1" vertex="1">
          <mxGeometry x="60" y="620" width="80" height="80" as="geometry" />
        </mxCell>
        <mxCell id="swwnsGvYC6vCfxG6fQMU-43" value="Method 1" style="shape=hexagon;perimeter=hexagonPerimeter2;whiteSpace=wrap;html=1;fixedSize=1;rounded=1;shadow=1;" parent="1" vertex="1">
          <mxGeometry x="280" y="720" width="120" height="80" as="geometry" />
        </mxCell>
      </root>
    </mxGraphModel>
  </diagram>
</mxfile>
